<svg version="1.1" class="hidden" xmlns="http://www.w3.org/2000/svg" xmlns:xlink="http://www.w3.org/1999/xlink" x="0px" y="0px"
	 width="32px" height="32px" viewBox="0 0 32 32" enable-background="new 0 0 32 32" xml:space="preserve">
<g id="instagramS">
	<g>
		<g>
			<path d="M16,0C7.2,0,0,7.2,0,16s7.2,16,16,16s16-7.2,16-16S24.8,0,16,0z M16,31C7.7,31,1,24.3,1,16S7.7,1,16,1s15,6.7,15,15
				S24.3,31,16,31z"/>
		</g>
	</g>
	<g>
		<g>
			<path d="M19.762,11.495c0.016,0.012,0.031,0.022,0.047,0.034v-0.034H19.762L19.762,11.495z"/>
		</g>
	</g>
	<path d="M23.778,5.5H8.424C6.637,5.5,4.5,6.415,4.5,8.011v16.043c0,1.595,2.137,3.446,3.924,3.446h15.354
		c1.786,0,2.722-1.852,2.722-3.446V8.011C26.5,6.415,25.564,5.5,23.778,5.5z M20.5,8.111c0-0.401,0.82-0.611,1.221-0.611h2.32
		c0.402,0,0.459,0.21,0.459,0.611v2.32c0,0.401-0.057,1.069-0.459,1.069h-2.32c-0.4,0-1.221-0.667-1.221-1.069V8.111z
		 M16.032,11.927c2.656,0,4.809,2.154,4.809,4.811c0,2.655-2.153,4.809-4.809,4.809c-2.656,0-4.81-2.153-4.81-4.809
		C11.222,14.081,13.375,11.927,16.032,11.927z M25.5,23.728c0,1.065-0.707,2.772-1.772,2.772H8.336C7.27,26.5,5.5,24.793,5.5,23.728
		V14.5h4.879c-0.466,1-0.731,1.514-0.731,2.586c0,3.533,2.865,6.207,6.398,6.207c3.534,0,6.397-2.679,6.397-6.212
		c0-0.991-0.226-1.581-0.628-2.581H25.5V23.728z"/>
</g>
<g id="instagramF">
	<g>
		<g>
			<path fill="#009BCD" d="M19.762,11.495c0.016,0.012,0.031,0.022,0.047,0.034v-0.034H19.762L19.762,11.495z"/>
		</g>
	</g>
	<path d="M16,0C7.2,0,0,7.2,0,16s7.2,16,16,16s16-7.2,16-16S24.8,0,16,0z M26.5,24.05c0,1.601-0.94,3.45-2.72,3.45H8.42
		c-1.78,0-3.92-1.85-3.92-3.45V8.01c0-1.6,2.14-2.51,3.92-2.51h15.36c1.779,0,2.72,0.91,2.72,2.51V24.05z"/>
	<path d="M24.5,10.39c0,0.613-0.43,1.11-0.96,1.11h-2.08c-0.53,0-0.96-0.497-0.96-1.11V8.61c0-0.613,0.43-1.11,0.96-1.11h2.08
		c0.53,0,0.96,0.497,0.96,1.11V10.39z"/>
	<path d="M25.5,14.5v9.23c0,1.06-0.71,2.77-1.77,2.77H8.34c-1.07,0-2.84-1.71-2.84-2.77V14.5h4.88c-0.47,1-0.73,1.51-0.73,2.59
		c0,3.53,2.86,6.205,6.4,6.205c3.53,0,6.391-2.683,6.391-6.213c0-0.99-0.221-1.582-0.62-2.582H25.5z"/>
	<path d="M20.84,16.74c0,2.649-2.149,4.81-4.81,4.81c-2.65,0-4.81-2.16-4.81-4.81c0-2.66,2.16-4.81,4.81-4.81
		C18.69,11.93,20.84,14.08,20.84,16.74z"/>
</g>
<path id="facebookF" d="M16,0C7.2,0,0,7.2,0,16s7.2,16,16,16s16-7.2,16-16S24.8,0,16,0z M19.5,13.3l-0.2,2.4h-2.5V24h-3.1v-8.3H12
	v-2.4h1.7v-1.6c0-0.7,0-1.8,0.5-2.5C14.9,8.5,15.6,8,16.9,8c2.1,0,3,0.3,3,0.3l-0.4,2.5c0,0-0.7-0.2-1.3-0.2
	c-0.601,0-1.2,0.2-1.2,0.9v1.9L19.5,13.3z"/>
<path id="twitterF" d="M16,0C7.2,0,0,7.2,0,16s7.2,16,16,16s16-7.2,16-16S24.8,0,16,0z M22.4,13.5v0.4c0,4.3-3.301,9.4-9.4,9.4
	c-1.9,0-3.6-0.5-5-1.5h0.8c1.5,0,3-0.5,4.1-1.399c-1.4,0-2.7-1-3.1-2.301l0.6,0.101c0.3,0,0.6,0,0.9-0.101c-1.5-0.3-2.6-1.6-2.6-3.2
	c0.4,0.2,1,0.4,1.5,0.4c-0.9-0.6-1.5-1.6-1.5-2.7c0-0.6,0.2-1.2,0.4-1.7c1.6,2,4,3.3,6.8,3.4c-0.1-0.2-0.1-0.5-0.1-0.7
	c0-1.8,1.5-3.3,3.3-3.3c0.9,0,1.801,0.4,2.4,1c0.8-0.1,1.5-0.4,2.1-0.8c-0.199,0.8-0.8,1.4-1.399,1.8c0.7-0.1,1.3-0.3,1.899-0.5
	C23.6,12.5,23,13,22.4,13.5z"/>
<g id="facebookS">
	<path d="M16,1c8.3,0,15,6.7,15,15s-6.7,15-15,15S1,24.3,1,16S7.7,1,16,1 M16,0C7.2,0,0,7.2,0,16s7.2,16,16,16s16-7.2,16-16
		S24.8,0,16,0z M17,13h2.7l-0.2,3H17v8h-3v-8h-2v-3h2v-1.3c0-0.7,0-1.8,0.5-2.5C15,8.5,15.8,8,17,8c2.1,0,3,0.3,3,0.3l-0.4,2.5
		c0,0-0.699-0.2-1.399-0.2c-0.601,0-1.2,0.2-1.2,0.9V13z"/>
</g>
<g id="twitterS">
	<path d="M16,1c8.3,0,15,6.7,15,15s-6.7,15-15,15S1,24.3,1,16S7.7,1,16,1 M16,0C7.2,0,0,7.2,0,16s7.2,16,16,16s16-7.2,16-16
		S24.8,0,16,0z M24.3,10.7c-0.399,0.7-1.3,2.4-2,2.8v0.4c0,4.3-3.3,9.4-9.4,9.4c-1.9,0-3.6-0.5-5-1.5h0.8c1.5,0,3-0.5,4.1-1.399
		c-1.4,0-2.7-1-3.1-2.301l0.6,0.101c0.3,0,0.6,0,0.9-0.101c-1.5-0.3-2.6-1.6-2.6-3.2c0.4,0.2,1,0.4,1.5,0.4
		c-0.9-0.6-1.5-1.6-1.5-2.7c0-0.6,0.2-1.2,0.4-1.7c1.6,2,4,3.3,6.8,3.4c-0.1-0.2-0.1-0.5-0.1-0.7c0-1.8,1.5-3.3,3.3-3.3
		c0.9,0,1.8,0.4,2.4,1C22.2,11.2,23.7,11,24.3,10.7z"/>
</g>
</svg>
